<?xml version="1.0" standalone="no"?>
<!DOCTYPE svg PUBLIC "-//W3C//DTD SVG 1.1//EN"
"http://www.w3.org/Graphics/SVG/1.1/DTD/svg11.dtd">

 <svg width="450px" height="450px" viewBox="0 0 450 450" version="1.1" xmlns="http://www.w3.org/2000/svg">

  <path d=" M 423.39 225.00 L 423.39 225.00 L 20.00 295.85 L 375.21 91.80 L 111.64 405.44 L 251.45 20.00 L 251.45 430.00 L 111.64 44.56 L 375.21 358.20 L 20.00 154.15 z M 246.73 170.21 L 246.73 170.21 L 355.37 107.86 L 274.12 203.27 L 395.05 225.00 L 274.12 245.78 L 355.37 341.20 L 246.73 278.85 L 246.73 401.66 L 204.22 286.41 L 125.81 380.88 L 167.37 264.68 L 43.62 286.41 L 151.31 225.00 L 43.62 162.65 L 167.37 184.38 L 125.81 68.18 L 204.22 162.65 L 246.73 47.40 z M 242.00 170.21 L 242.00 170.21 L 242.95 173.04 L 244.84 174.93 L 247.67 174.93 L 248.62 173.99 L 334.59 123.92 L 270.35 200.44 L 269.40 202.33 L 270.35 205.16 L 271.29 207.05 L 273.18 208.00 L 366.71 224.06 L 273.18 241.06 L 271.29 242.00 L 269.40 244.84 L 269.40 247.67 L 270.35 248.62 L 334.59 324.19 L 248.62 275.07 L 246.73 274.12 L 243.89 275.07 L 242.00 276.96 L 242.00 373.32 L 208.94 284.52 L 207.05 282.63 L 204.22 281.68 L 201.38 282.63 L 200.44 283.57 L 139.03 356.31 L 172.10 266.57 L 172.10 263.73 L 170.21 260.90 L 168.32 259.95 L 166.43 259.95 L 68.18 276.96 L 153.20 228.78 L 155.09 226.89 L 156.04 224.06 L 155.09 222.17 L 154.15 221.22 L 69.12 171.15 L 166.43 189.10 L 169.26 189.10 L 171.15 187.21 L 172.10 184.38 L 172.10 182.49 L 139.03 91.80 L 200.44 165.48 L 203.27 167.37 L 205.16 167.37 L 208.00 165.48 L 208.94 164.54 L 242.00 74.79 z M 237.28 172.10 L 237.28 172.10 L 238.23 174.93 L 239.17 176.82 L 241.06 178.71 L 243.89 179.65 L 247.67 179.65 L 250.51 178.71 L 251.45 178.71 L 252.40 177.76 L 251.45 176.82 L 312.86 140.92 L 266.57 197.60 L 266.57 198.55 L 265.62 200.44 L 264.68 203.27 L 264.68 204.22 L 265.62 207.05 L 266.57 207.05 L 268.46 210.83 L 269.40 210.83 L 271.29 211.77 L 272.24 212.72 L 338.36 224.06 L 272.24 236.34 L 271.29 237.28 L 267.51 239.17 L 265.62 242.00 L 264.68 244.84 L 264.68 247.67 L 265.62 250.51 L 265.62 251.45 L 266.57 252.40 L 266.57 251.45 L 313.80 307.19 L 250.51 271.29 L 248.62 270.35 L 245.78 269.40 L 244.84 269.40 L 242.00 270.35 L 240.12 271.29 L 238.23 273.18 L 237.28 276.01 L 237.28 345.92 L 213.66 282.63 L 212.72 280.74 L 210.83 278.85 L 208.94 277.90 L 206.11 276.96 L 202.33 276.96 L 199.49 277.90 L 197.60 278.85 L 196.66 279.79 L 196.66 280.74 L 153.20 331.75 L 176.82 268.46 L 176.82 263.73 L 175.88 260.90 L 173.99 258.06 L 168.32 255.23 L 165.48 255.23 L 92.74 267.51 L 155.09 232.56 L 156.98 232.56 L 158.87 230.67 L 159.82 228.78 L 160.76 225.94 L 160.76 223.11 L 159.82 222.17 L 158.87 220.28 L 158.87 218.39 L 157.93 217.44 L 156.98 217.44 L 94.63 180.60 L 165.48 193.82 L 169.26 193.82 L 172.10 192.88 L 173.04 192.88 L 174.93 190.99 L 175.88 189.10 L 176.82 186.27 L 176.82 180.60 L 153.20 116.36 L 196.66 168.32 L 197.60 169.26 L 200.44 171.15 L 203.27 172.10 L 205.16 172.10 L 208.00 171.15 L 210.83 169.26 L 211.77 169.26 L 212.72 168.32 L 213.66 166.43 L 237.28 102.19 z M 232.56 173.99 L 232.56 173.99 L 233.50 176.82 L 234.45 176.82 L 235.39 178.71 L 235.39 180.60 L 237.28 182.49 L 239.17 183.43 L 242.00 184.38 L 249.56 184.38 L 252.40 183.43 L 251.45 182.49 L 255.23 182.49 L 256.18 181.54 L 257.12 178.71 L 292.07 157.93 L 262.79 194.77 L 261.84 196.66 L 261.84 198.55 L 260.90 198.55 L 259.95 201.38 L 259.95 206.11 L 260.90 208.94 L 262.79 210.83 L 263.73 210.83 L 265.62 214.61 L 267.51 214.61 L 267.51 215.55 L 268.46 216.50 L 271.29 217.44 L 310.97 224.06 L 271.29 231.61 L 269.40 232.56 L 268.46 232.56 L 265.62 235.39 L 263.73 236.34 L 261.84 239.17 L 260.90 240.12 L 259.95 242.95 L 259.95 249.56 L 260.90 252.40 L 261.84 254.29 L 261.84 255.23 L 262.79 256.18 L 265.62 257.12 L 293.96 290.18 L 252.40 267.51 L 250.51 266.57 L 250.51 265.62 L 247.67 264.68 L 242.95 264.68 L 240.12 265.62 L 240.12 266.57 L 238.23 267.51 L 236.34 267.51 L 234.45 269.40 L 233.50 271.29 L 232.56 274.12 L 232.56 318.53 L 218.39 280.74 L 217.44 280.74 L 216.50 278.85 L 216.50 276.96 L 214.61 275.07 L 212.72 275.07 L 210.83 274.12 L 210.83 273.18 L 208.00 272.24 L 200.44 272.24 L 197.60 273.18 L 197.60 274.12 L 195.71 275.07 L 193.82 275.07 L 192.88 276.01 L 190.99 278.85 L 167.37 307.19 L 181.54 270.35 L 181.54 261.84 L 180.60 259.01 L 179.65 258.06 L 177.76 255.23 L 168.32 250.51 L 164.54 250.51 L 117.30 258.06 L 155.09 237.28 L 156.98 237.28 L 159.82 236.34 L 160.76 236.34 L 162.65 234.45 L 162.65 232.56 L 163.59 230.67 L 164.54 230.67 L 165.48 227.83 L 165.48 223.11 L 164.54 220.28 L 164.54 219.33 L 163.59 218.39 L 162.65 215.55 L 162.65 214.61 L 161.71 213.66 L 158.87 212.72 L 157.93 212.72 L 120.14 190.05 L 164.54 198.55 L 171.15 198.55 L 173.99 197.60 L 173.04 196.66 L 176.82 196.66 L 178.71 194.77 L 178.71 192.88 L 179.65 190.99 L 180.60 190.99 L 181.54 188.16 L 181.54 178.71 L 167.37 140.92 L 192.88 171.15 L 192.88 172.10 L 193.82 173.04 L 194.77 173.04 L 197.60 174.93 L 198.55 175.88 L 201.38 176.82 L 207.05 176.82 L 209.88 175.88 L 212.72 173.04 L 215.55 173.04 L 216.50 172.10 L 216.50 170.21 L 217.44 168.32 L 218.39 168.32 L 232.56 129.59 z M 227.83 175.88 L 227.83 175.88 L 228.78 178.71 L 230.67 180.60 L 231.61 183.43 L 231.61 184.38 L 233.50 186.27 L 235.39 186.27 L 237.28 187.21 L 237.28 188.16 L 240.12 189.10 L 251.45 189.10 L 254.29 188.16 L 255.23 187.21 L 258.06 186.27 L 259.01 186.27 L 259.95 185.32 L 260.90 183.43 L 260.90 181.54 L 272.24 174.93 L 259.01 191.94 L 259.01 192.88 L 258.06 194.77 L 256.18 196.66 L 255.23 199.49 L 255.23 208.00 L 256.18 210.83 L 257.12 212.72 L 259.01 214.61 L 261.84 215.55 L 261.84 216.50 L 262.79 218.39 L 263.73 218.39 L 263.73 219.33 L 264.68 220.28 L 266.57 221.22 L 269.40 222.17 L 270.35 222.17 L 283.57 224.06 L 270.35 226.89 L 269.40 227.83 L 268.46 227.83 L 265.62 228.78 L 264.68 228.78 L 261.84 231.61 L 261.84 232.56 L 259.95 233.50 L 257.12 236.34 L 256.18 238.23 L 255.23 241.06 L 255.23 251.45 L 256.18 254.29 L 257.12 254.29 L 257.12 255.23 L 258.06 258.06 L 258.06 259.01 L 259.01 259.95 L 260.90 260.90 L 263.73 261.84 L 274.12 274.12 L 254.29 263.73 L 254.29 262.79 L 252.40 260.90 L 249.56 259.95 L 241.06 259.95 L 238.23 260.90 L 236.34 262.79 L 233.50 263.73 L 232.56 263.73 L 230.67 265.62 L 230.67 267.51 L 229.72 269.40 L 228.78 269.40 L 227.83 272.24 L 227.83 290.18 L 223.11 278.85 L 221.22 276.96 L 220.28 274.12 L 220.28 273.18 L 218.39 271.29 L 215.55 270.35 L 214.61 270.35 L 212.72 268.46 L 209.88 267.51 L 198.55 267.51 L 195.71 268.46 L 193.82 270.35 L 190.99 271.29 L 190.05 271.29 L 189.10 272.24 L 189.10 273.18 L 187.21 276.01 L 182.49 280.74 L 186.27 272.24 L 186.27 259.95 L 185.32 257.12 L 184.38 255.23 L 183.43 254.29 L 182.49 254.29 L 181.54 252.40 L 168.32 245.78 L 163.59 245.78 L 141.87 248.62 L 155.09 242.00 L 158.87 242.00 L 161.71 241.06 L 160.76 240.12 L 164.54 240.12 L 166.43 238.23 L 167.37 235.39 L 167.37 234.45 L 169.26 232.56 L 170.21 229.72 L 170.21 221.22 L 169.26 218.39 L 168.32 216.50 L 168.32 215.55 L 167.37 214.61 L 167.37 213.66 L 166.43 211.77 L 166.43 210.83 L 165.48 209.88 L 163.59 208.94 L 160.76 208.00 L 158.87 208.00 L 144.70 199.49 L 163.59 203.27 L 173.04 203.27 L 175.88 202.33 L 176.82 201.38 L 179.65 200.44 L 180.60 200.44 L 182.49 198.55 L 183.43 195.71 L 183.43 194.77 L 185.32 192.88 L 186.27 190.05 L 186.27 176.82 L 181.54 165.48 L 189.10 173.99 L 189.10 175.88 L 190.05 176.82 L 192.88 177.76 L 193.82 177.76 L 193.82 178.71 L 194.77 179.65 L 196.66 180.60 L 199.49 181.54 L 208.94 181.54 L 211.77 180.60 L 213.66 179.65 L 215.55 177.76 L 218.39 176.82 L 219.33 176.82 L 220.28 175.88 L 221.22 173.04 L 221.22 172.10 L 223.11 170.21 L 227.83 156.98 z M 224.06 180.60 L 224.06 180.60 L 225.00 182.49 L 226.89 184.38 L 226.89 185.32 L 227.83 187.21 L 227.83 188.16 L 229.72 190.05 L 232.56 190.99 L 233.50 190.99 L 235.39 192.88 L 238.23 193.82 L 251.45 193.82 L 251.45 194.77 L 250.51 197.60 L 250.51 209.88 L 251.45 212.72 L 252.40 212.72 L 253.34 214.61 L 253.34 216.50 L 255.23 218.39 L 257.12 219.33 L 259.01 219.33 L 259.95 222.17 L 259.95 223.11 L 260.90 224.06 L 262.79 224.06 L 261.84 225.00 L 260.90 225.00 L 258.06 227.83 L 257.12 229.72 L 256.18 229.72 L 253.34 232.56 L 253.34 234.45 L 252.40 236.34 L 251.45 236.34 L 250.51 239.17 L 250.51 253.34 L 251.45 255.23 L 239.17 255.23 L 236.34 256.18 L 232.56 258.06 L 231.61 259.01 L 229.72 259.95 L 228.78 259.95 L 226.89 261.84 L 225.94 264.68 L 225.94 265.62 L 223.11 268.46 L 222.17 267.51 L 220.28 266.57 L 217.44 265.62 L 216.50 264.68 L 214.61 263.73 L 211.77 262.79 L 196.66 262.79 L 193.82 263.73 L 191.94 264.68 L 190.99 265.62 L 190.99 258.06 L 190.05 255.23 L 189.10 255.23 L 188.16 253.34 L 188.16 251.45 L 187.21 250.51 L 184.38 249.56 L 184.38 248.62 L 183.43 248.62 L 170.21 242.00 L 171.15 240.12 L 172.10 237.28 L 173.04 236.34 L 173.99 234.45 L 174.93 231.61 L 174.93 219.33 L 173.99 216.50 L 173.04 216.50 L 173.04 215.55 L 172.10 212.72 L 172.10 211.77 L 171.15 210.83 L 170.21 208.00 L 174.93 208.00 L 177.76 207.05 L 179.65 206.11 L 179.65 205.16 L 181.54 205.16 L 180.60 204.22 L 184.38 204.22 L 186.27 202.33 L 187.21 200.44 L 188.16 197.60 L 189.10 196.66 L 190.05 194.77 L 190.99 191.94 L 190.99 183.43 L 192.88 183.43 L 194.77 184.38 L 194.77 185.32 L 197.60 186.27 L 210.83 186.27 L 213.66 185.32 L 213.66 184.38 L 215.55 183.43 L 217.44 183.43 L 218.39 181.54 L 220.28 181.54 L 219.33 180.60 L 223.11 180.60 L 224.06 179.65 z M 221.22 186.27 L 221.22 186.27 L 223.11 188.16 L 224.06 190.99 L 224.06 191.94 L 225.94 193.82 L 227.83 194.77 L 230.67 195.71 L 231.61 196.66 L 233.50 197.60 L 236.34 198.55 L 245.78 198.55 L 245.78 211.77 L 246.73 214.61 L 248.62 216.50 L 249.56 219.33 L 249.56 220.28 L 251.45 222.17 L 254.29 222.17 L 254.29 225.00 L 253.34 225.94 L 252.40 225.94 L 249.56 228.78 L 248.62 231.61 L 248.62 232.56 L 246.73 234.45 L 245.78 237.28 L 245.78 250.51 L 237.28 250.51 L 234.45 251.45 L 234.45 252.40 L 230.67 254.29 L 228.78 254.29 L 227.83 255.23 L 225.94 256.18 L 225.00 256.18 L 223.11 258.06 L 222.17 259.95 L 221.22 260.90 L 218.39 260.90 L 216.50 259.95 L 216.50 259.01 L 213.66 258.06 L 195.71 258.06 L 195.71 256.18 L 194.77 253.34 L 192.88 251.45 L 191.94 248.62 L 191.94 247.67 L 190.99 246.73 L 187.21 244.84 L 186.27 243.89 L 183.43 243.89 L 175.88 240.12 L 176.82 240.12 L 176.82 238.23 L 177.76 236.34 L 178.71 236.34 L 179.65 233.50 L 179.65 217.44 L 178.71 214.61 L 177.76 213.66 L 176.82 211.77 L 179.65 211.77 L 179.65 210.83 L 181.54 209.88 L 187.21 208.00 L 188.16 208.00 L 190.05 206.11 L 190.05 204.22 L 190.99 202.33 L 191.94 202.33 L 191.94 201.38 L 192.88 200.44 L 192.88 198.55 L 193.82 196.66 L 194.77 196.66 L 195.71 193.82 L 195.71 190.99 L 212.72 190.99 L 215.55 190.05 L 217.44 188.16 L 220.28 187.21 L 220.28 186.27 L 221.22 185.32 z M 220.28 194.77 L 220.28 194.77 L 220.28 195.71 L 222.17 197.60 L 224.06 197.60 L 225.94 198.55 L 225.94 199.49 L 226.89 199.49 L 227.83 200.44 L 229.72 200.44 L 231.61 201.38 L 231.61 202.33 L 234.45 203.27 L 241.06 203.27 L 241.06 213.66 L 242.00 216.50 L 242.95 218.39 L 244.84 220.28 L 244.84 221.22 L 245.78 223.11 L 245.78 225.00 L 244.84 226.89 L 243.89 229.72 L 242.95 230.67 L 242.00 232.56 L 241.06 235.39 L 241.06 245.78 L 235.39 245.78 L 232.56 246.73 L 229.72 249.56 L 228.78 249.56 L 225.94 250.51 L 225.00 250.51 L 224.06 251.45 L 222.17 252.40 L 221.22 252.40 L 219.33 254.29 L 219.33 255.23 L 218.39 254.29 L 215.55 253.34 L 200.44 253.34 L 198.55 249.56 L 196.66 247.67 L 196.66 246.73 L 195.71 244.84 L 195.71 243.89 L 194.77 242.95 L 192.88 242.95 L 190.05 241.06 L 190.99 241.06 L 190.05 240.12 L 187.21 239.17 L 183.43 239.17 L 182.49 238.23 L 183.43 238.23 L 184.38 235.39 L 184.38 215.55 L 183.43 213.66 L 189.10 212.72 L 188.16 211.77 L 191.94 211.77 L 193.82 209.88 L 194.77 207.05 L 194.77 206.11 L 196.66 204.22 L 196.66 203.27 L 197.60 201.38 L 197.60 200.44 L 199.49 198.55 L 200.44 195.71 L 214.61 195.71 L 217.44 194.77 L 219.33 193.82 L 219.33 192.88 z M 218.39 201.38 L 218.39 201.38 L 221.22 202.33 L 222.17 202.33 L 224.06 204.22 L 226.89 205.16 L 227.83 205.16 L 229.72 207.05 L 232.56 208.00 L 236.34 208.00 L 236.34 215.55 L 237.28 218.39 L 238.23 218.39 L 239.17 220.28 L 239.17 222.17 L 241.06 224.06 L 241.06 225.00 L 240.12 225.00 L 240.12 225.94 L 239.17 226.89 L 239.17 228.78 L 238.23 230.67 L 237.28 230.67 L 236.34 233.50 L 236.34 241.06 L 233.50 241.06 L 230.67 242.00 L 228.78 242.95 L 226.89 244.84 L 224.06 245.78 L 222.17 246.73 L 221.22 246.73 L 220.28 247.67 L 218.39 248.62 L 202.33 248.62 L 202.33 245.78 L 200.44 243.89 L 199.49 241.06 L 199.49 240.12 L 198.55 239.17 L 195.71 238.23 L 194.77 238.23 L 194.77 237.28 L 193.82 236.34 L 191.94 235.39 L 189.10 234.45 L 189.10 217.44 L 190.05 217.44 L 191.94 216.50 L 194.77 215.55 L 195.71 215.55 L 197.60 213.66 L 198.55 211.77 L 199.49 208.94 L 200.44 208.00 L 201.38 205.16 L 201.38 204.22 L 203.27 202.33 L 204.22 200.44 L 216.50 200.44 L 216.50 199.49 z M 214.61 205.16 L 214.61 205.16 L 216.50 206.11 L 219.33 207.05 L 220.28 208.00 L 222.17 208.94 L 225.00 209.88 L 225.94 210.83 L 227.83 211.77 L 230.67 212.72 L 231.61 212.72 L 231.61 217.44 L 232.56 220.28 L 234.45 222.17 L 234.45 226.89 L 232.56 228.78 L 231.61 231.61 L 231.61 236.34 L 228.78 237.28 L 228.78 238.23 L 226.89 239.17 L 225.00 239.17 L 223.11 240.12 L 222.17 241.06 L 222.17 242.00 L 221.22 242.00 L 218.39 242.95 L 217.44 242.95 L 216.50 243.89 L 206.11 243.89 L 206.11 242.00 L 204.22 240.12 L 204.22 239.17 L 203.27 237.28 L 203.27 236.34 L 202.33 235.39 L 198.55 233.50 L 197.60 232.56 L 195.71 232.56 L 193.82 231.61 L 193.82 221.22 L 196.66 220.28 L 195.71 219.33 L 199.49 219.33 L 201.38 217.44 L 201.38 215.55 L 202.33 213.66 L 203.27 213.66 L 203.27 212.72 L 204.22 211.77 L 205.16 209.88 L 206.11 207.05 L 207.05 206.11 L 207.05 205.16 z M 214.61 209.88 L 214.61 209.88 L 214.61 210.83 L 215.55 210.83 L 216.50 211.77 L 218.39 211.77 L 220.28 212.72 L 220.28 213.66 L 221.22 213.66 L 222.17 214.61 L 224.06 214.61 L 225.94 215.55 L 225.94 216.50 L 226.89 216.50 L 226.89 219.33 L 227.83 222.17 L 228.78 224.06 L 228.78 225.00 L 227.83 226.89 L 226.89 229.72 L 226.89 232.56 L 225.00 234.45 L 221.22 236.34 L 219.33 236.34 L 218.39 237.28 L 217.44 237.28 L 216.50 238.23 L 214.61 239.17 L 209.88 239.17 L 209.88 238.23 L 208.00 236.34 L 207.05 233.50 L 207.05 232.56 L 206.11 231.61 L 204.22 231.61 L 201.38 229.72 L 202.33 229.72 L 201.38 228.78 L 198.55 227.83 L 198.55 225.00 L 199.49 224.06 L 202.33 223.11 L 203.27 223.11 L 205.16 221.22 L 206.11 218.39 L 206.11 217.44 L 208.00 215.55 L 208.00 212.72 L 208.94 211.77 L 209.88 211.77 L 209.88 210.83 L 210.83 209.88 z M 212.72 215.55 L 212.72 215.55 L 215.55 216.50 L 216.50 216.50 L 218.39 218.39 L 221.22 219.33 L 222.17 219.33 L 222.17 221.22 L 223.11 224.06 L 224.06 224.06 L 224.06 225.00 L 223.11 225.00 L 222.17 227.83 L 222.17 229.72 L 221.22 230.67 L 221.22 231.61 L 219.33 231.61 L 216.50 232.56 L 215.55 232.56 L 214.61 233.50 L 212.72 233.50 L 211.77 232.56 L 211.77 231.61 L 210.83 229.72 L 210.83 228.78 L 209.88 227.83 L 207.05 226.89 L 208.94 225.00 L 209.88 223.11 L 210.83 220.28 L 211.77 219.33 L 212.72 216.50 z M 216.50 223.11 L 216.50 223.11 L 217.44 223.11 L 217.44 226.89 L 214.61 226.89 L 214.61 224.06 L 215.55 223.11 L 215.55 222.17 z"
    style="fill:#66ff66; fill-opacity:0.27; fill-rule:nonzero; stroke:#003300; stroke-opacity:1.00; stroke-width:1.00;"/>
</svg>
