<?xml version="1.0" encoding="UTF-8" standalone="no"?>
<!-- Created with Inkscape (http://www.inkscape.org/) -->

<svg
   width="210mm"
   height="297mm"
   viewBox="0 0 210 297"
   version="1.1"
   id="svg2498"
   inkscape:version="1.2.2 (b0a8486541, 2022-12-01)"
   sodipodi:docname="robot.svg"
   xml:space="preserve"
   xmlns:inkscape="http://www.inkscape.org/namespaces/inkscape"
   xmlns:sodipodi="http://sodipodi.sourceforge.net/DTD/sodipodi-0.dtd"
   xmlns="http://www.w3.org/2000/svg"
   xmlns:svg="http://www.w3.org/2000/svg"><sodipodi:namedview
     id="namedview2500"
     pagecolor="#ffffff"
     bordercolor="#000000"
     borderopacity="0.25"
     inkscape:showpageshadow="2"
     inkscape:pageopacity="0.0"
     inkscape:pagecheckerboard="0"
     inkscape:deskcolor="#d1d1d1"
     inkscape:document-units="mm"
     showgrid="false"
     inkscape:zoom="1.9779745"
     inkscape:cx="461.07774"
     inkscape:cy="456.27485"
     inkscape:window-width="1854"
     inkscape:window-height="1011"
     inkscape:window-x="0"
     inkscape:window-y="0"
     inkscape:window-maximized="1"
     inkscape:current-layer="layer1" /><defs
     id="defs2495" /><g
     inkscape:label="Layer 1"
     inkscape:groupmode="layer"
     id="layer1"><path
       style="fill:#87a7a5;stroke-width:0.230491"
       d="m 81.533456,122.47728 1.818285,12.45481 h 13.54372 l -9.279205,-12.80415 z"
       id="path487"
       sodipodi:nodetypes="ccccc"
       inkscape:export-filename="robot.png"
       inkscape:export-xdpi="96"
       inkscape:export-ydpi="96" /><path
       style="fill:#87a7a5;fill-opacity:1;stroke:none;stroke-width:0.435572;stroke-dasharray:none;stroke-opacity:1"
       d="m 82.447285,117.59056 3.058564,-8.07234 6.428627,2.14664 -1.935793,8.12652 z"
       id="path1815" /><path
       style="fill:#fda43c;fill-opacity:1;stroke-width:0.135513"
       d="m 84.744909,125.97111 c -2.074307,-0.23638 -3.788971,-1.75794 -4.298729,-3.81456 -0.160388,-0.64707 -0.149163,-1.69086 0.02544,-2.36814 0.751109,-2.9129 3.840957,-4.50785 6.644723,-3.42993 1.229273,0.47261 2.316738,1.54089 2.813779,2.76409 0.828586,2.03918 0.210377,4.41 -1.505489,5.77353 -1.042116,0.82815 -2.390206,1.22198 -3.679749,1.07501 z"
       id="path1004" /><g
       id="g2249"
       transform="matrix(0.76146793,-0.50481194,0.50481194,0.76146793,-38.218053,74.637222)"><path
         style="fill:#87a7a5;fill-opacity:1;stroke:none;stroke-width:0.476764;stroke-dasharray:none;stroke-opacity:1"
         d="m 96.379273,106.88288 6.709327,3.60163 -2.11173,3.86481 -6.812897,-2.09623 z"
         id="path2051" /><g
         id="g2242"
         transform="matrix(1.4531151,0,0,1.4531151,-45.832354,-50.461671)"><path
           style="fill:#87a7a5;fill-opacity:1;stroke:none;stroke-width:0.476764;stroke-dasharray:none;stroke-opacity:1"
           d="m 102.54781,110.21747 4.89812,-0.75289 3.63756,3.46106 -0.58553,1.30812 -4.2541,-2.18289 -2.60284,1.25385 z"
           id="path2080" /><path
           style="fill:#87a7a5;fill-opacity:1;stroke:none;stroke-width:0.476764;stroke-dasharray:none;stroke-opacity:1"
           d="m 104.10747,113.47454 0.1832,3.2 3.84049,2.19099 -0.82122,0.99069 -4.82379,-1.16931 -1.52126,-4.43272 z"
           id="path2082" /><path
           style="fill:#fda43c;fill-opacity:1;stroke-width:0.0656981"
           d="m 102.28064,115.00704 c -1.00565,-0.1146 -1.83694,-0.85227 -2.08408,-1.84933 -0.0778,-0.31372 -0.0723,-0.81977 0.0123,-1.1481 0.36415,-1.41223 1.86215,-2.18548 3.22145,-1.66288 0.59596,0.22913 1.12318,0.74703 1.36415,1.34007 0.40171,0.98861 0.10199,2.13802 -0.72988,2.79908 -0.50523,0.40148 -1.1588,0.59241 -1.78399,0.52116 z"
           id="path1004-3-6" /></g></g><path
       style="fill:#fda43c;fill-opacity:1;stroke-width:0.102925"
       d="m 88.482155,114.20078 c -1.575505,-0.17955 -2.877849,-1.33521 -3.265028,-2.89728 -0.12182,-0.49148 -0.113295,-1.28429 0.01934,-1.79868 0.570492,-2.21246 2.917335,-3.42388 5.046886,-2.60514 0.933672,0.35895 1.75964,1.17034 2.137159,2.09943 0.629337,1.5488 0.159787,3.34953 -1.143469,4.38517 -0.791523,0.629 -1.815439,0.92812 -2.794888,0.8165 z"
       id="path1004-3" /></g></svg>
