<?xml version="1.0" encoding="UTF-8" standalone="no"?>
<!-- Created with Inkscape (http://www.inkscape.org/) -->

<svg
   width="210mm"
   height="297mm"
   viewBox="0 0 210 297"
   version="1.1"
   id="svg2498"
   inkscape:version="1.2.2 (b0a8486541, 2022-12-01)"
   sodipodi:docname="robot.svg"
   xml:space="preserve"
   xmlns:inkscape="http://www.inkscape.org/namespaces/inkscape"
   xmlns:sodipodi="http://sodipodi.sourceforge.net/DTD/sodipodi-0.dtd"
   xmlns="http://www.w3.org/2000/svg"
   xmlns:svg="http://www.w3.org/2000/svg"><sodipodi:namedview
     id="namedview2500"
     pagecolor="#ffffff"
     bordercolor="#000000"
     borderopacity="0.25"
     inkscape:showpageshadow="2"
     inkscape:pageopacity="0.0"
     inkscape:pagecheckerboard="0"
     inkscape:deskcolor="#d1d1d1"
     inkscape:document-units="mm"
     showgrid="false"
     inkscape:zoom="1.3986392"
     inkscape:cx="523.36587"
     inkscape:cy="461.52004"
     inkscape:window-width="1854"
     inkscape:window-height="1011"
     inkscape:window-x="0"
     inkscape:window-y="0"
     inkscape:window-maximized="1"
     inkscape:current-layer="layer1" /><defs
     id="defs2495" /><g
     inkscape:label="Layer 1"
     inkscape:groupmode="layer"
     id="layer1"><g
       id="g2356"
       transform="matrix(0.97175169,0,0,0.97175169,2.2635132,2.9594572)"><path
         style="fill:#87a7a5;stroke-width:0.237191"
         d="M 82.818866,124.96294 80.129167,136.92 h 13.937429 l -2.878679,-11.9805 z"
         id="path487"
         sodipodi:nodetypes="ccccc" /><path
         style="fill:#87a7a5;fill-opacity:1;stroke:none;stroke-width:0.448234;stroke-dasharray:none;stroke-opacity:1"
         d="m 84.075565,120.01494 5.084954,-7.28396 5.873605,3.76106 -3.978334,7.62081 z"
         id="path1815" /><path
         style="fill:#fda43c;fill-opacity:1;stroke-width:0.139452"
         d="m 86.389301,128.51155 c -2.134606,-0.24325 -3.899114,-1.80905 -4.42369,-3.92545 -0.165051,-0.66588 -0.1535,-1.74001 0.02618,-2.43698 0.772943,-2.99758 3.952612,-4.63889 6.837882,-3.52964 1.265007,0.48635 2.384084,1.58569 2.895574,2.84444 0.852672,2.09846 0.216492,4.5382 -1.549253,5.94137 -1.07241,0.85222 -2.459688,1.2575 -3.786717,1.10626 z"
         id="path1004" /><g
         id="g2249"
         transform="matrix(0.7836034,-0.51948656,0.51948656,0.7836034,-37.6658,76.963002)"><path
           style="fill:#87a7a5;fill-opacity:1;stroke:none;stroke-width:0.476764;stroke-dasharray:none;stroke-opacity:1"
           d="m 96.379273,106.88288 6.709327,3.60163 -2.11173,3.86481 -6.812897,-2.09623 z"
           id="path2051" /><g
           id="g2242"
           transform="matrix(1.4531151,0,0,1.4531151,-45.832354,-50.461671)"><path
             style="fill:#87a7a5;fill-opacity:1;stroke:none;stroke-width:0.476764;stroke-dasharray:none;stroke-opacity:1"
             d="m 102.54781,110.21747 4.89812,-0.75289 3.63756,3.46106 -0.58553,1.30812 -4.2541,-2.18289 -2.60284,1.25385 z"
             id="path2080" /><path
             style="fill:#87a7a5;fill-opacity:1;stroke:none;stroke-width:0.476764;stroke-dasharray:none;stroke-opacity:1"
             d="m 104.10747,113.47454 0.1832,3.2 3.84049,2.19099 -0.82122,0.99069 -4.82379,-1.16931 -1.52126,-4.43272 z"
             id="path2082" /><path
             style="fill:#fda43c;fill-opacity:1;stroke-width:0.0656981"
             d="m 102.28064,115.00704 c -1.00565,-0.1146 -1.83694,-0.85227 -2.08408,-1.84933 -0.0778,-0.31372 -0.0723,-0.81977 0.0123,-1.1481 0.36415,-1.41223 1.86215,-2.18548 3.22145,-1.66288 0.59596,0.22913 1.12318,0.74703 1.36415,1.34007 0.40171,0.98861 0.10199,2.13802 -0.72988,2.79908 -0.50523,0.40148 -1.1588,0.59241 -1.78399,0.52116 z"
             id="path1004-3-6" /></g></g><path
         style="fill:#fda43c;fill-opacity:1;stroke-width:0.105917"
         d="m 92.012043,118.05063 c -1.621304,-0.18477 -2.961506,-1.37402 -3.35994,-2.9815 -0.125362,-0.50577 -0.116589,-1.32162 0.0199,-1.85096 0.587076,-2.27678 3.00214,-3.52342 5.193596,-2.68088 0.960814,0.36939 1.810792,1.20437 2.199285,2.16046 0.647632,1.59383 0.164432,3.4469 -1.176709,4.51265 -0.814532,0.64728 -1.868213,0.9551 -2.876135,0.84023 z"
         id="path1004-3" /></g></g></svg>
